<?xml version="1.0" encoding="UTF-8" standalone="no"?>
<!-- Created with Inkscape (http://www.inkscape.org/) -->

<svg
   width="512"
   height="512"
   viewBox="0 0 135.46666 135.46667"
   version="1.1"
   id="svg1"
   xml:space="preserve"
   inkscape:version="1.3 (0e150ed6c4, 2023-07-21)"
   sodipodi:docname="favicon.svg"
   inkscape:export-filename="favicon.png"
   inkscape:export-xdpi="96"
   inkscape:export-ydpi="96"
   xmlns:inkscape="http://www.inkscape.org/namespaces/inkscape"
   xmlns:sodipodi="http://sodipodi.sourceforge.net/DTD/sodipodi-0.dtd"
   xmlns="http://www.w3.org/2000/svg"
   xmlns:svg="http://www.w3.org/2000/svg"><sodipodi:namedview
     id="namedview1"
     pagecolor="#ffffff"
     bordercolor="#000000"
     borderopacity="0.25"
     inkscape:showpageshadow="2"
     inkscape:pageopacity="0.0"
     inkscape:pagecheckerboard="0"
     inkscape:deskcolor="#d1d1d1"
     inkscape:document-units="mm"
     inkscape:zoom="1"
     inkscape:cx="213"
     inkscape:cy="275.5"
     inkscape:window-width="1920"
     inkscape:window-height="1009"
     inkscape:window-x="1912"
     inkscape:window-y="-8"
     inkscape:window-maximized="1"
     inkscape:current-layer="layer1" /><defs
     id="defs1"><inkscape:path-effect
       effect="fillet_chamfer"
       id="path-effect1"
       is_visible="true"
       lpeversion="1"
       nodesatellites_param="F,0,0,1,0,0,0,1 @ F,0,0,1,0,0,0,1 @ F,0,0,1,0,0,0,1 @ F,0,0,1,0,0,0,1 @ F,0,0,1,0,0,0,1 @ F,0,0,1,0,0,0,1 @ F,0,0,1,0,0,0,1 @ F,0,0,1,0,0,0,1"
       radius="0"
       unit="px"
       method="auto"
       mode="F"
       chamfer_steps="1"
       flexible="false"
       use_knot_distance="true"
       apply_no_radius="true"
       apply_with_radius="true"
       only_selected="false"
       hide_knots="false" /></defs><g
     inkscape:label="Layer 1"
     inkscape:groupmode="layer"
     id="layer1"><path
       style="fill:#202020;fill-opacity:1;stroke-width:2.64843"
       id="rect1"
       width="135.46666"
       height="135.46666"
       x="3.5603841e-06"
       y="3.5603841e-06"
       inkscape:path-effect="#path-effect1"
       sodipodi:type="rect"
       d="m 20.108337,3.5603841e-6 h 95.249993 c 11.14002,0 20.10833,8.9683167396159 20.10833,20.1083334396159 v 95.249993 c 0,11.14002 -8.96831,20.10833 -20.10833,20.10833 H 20.108337 C 8.9683203,135.46666 3.5603841e-6,126.49835 3.5603841e-6,115.35833 V 20.108337 C 3.5603841e-6,8.9683203 8.9683203,3.5603841e-6 20.108337,3.5603841e-6 Z"
       ry="20.108334" /><path
       fill="#000000"
       d="m 98.869887,32.507399 -15.36123,4.467497 6.21942,-4.209728 c -3.92648,0.887205 -8.88703,2.62265 -15.121444,5.42364 L 64.43075,48.797801 68.042514,41.386942 c -3.491872,1.94226 -7.193555,4.488478 -10.760358,7.470805 l -2.367879,9.636365 -0.509543,-7.133607 c -3.521844,3.237099 -6.833876,6.833876 -9.576418,10.625478 -2.881918,3.971442 -5.1344,8.167682 -6.262888,12.348935 l -4.214224,-2.817477 c 0.377661,3.551817 1.545116,6.639051 3.460399,9.471514 l -5.038485,-1.543617 c 1.144974,3.521844 3.016797,5.799801 6.181961,7.643149 -1.772912,4.990531 -2.604667,10.205851 -3.497866,15.406193 l 2.757529,0.46459 C 41.412876,71.082832 63.981153,50.761042 84.377877,41.75711 l 1.03407,2.604666 C 67.173292,52.529457 52.995996,66.3171 45.577644,86.189293 c 2.712569,0.01497 5.365192,-0.314717 7.82299,-0.944154 l 0.734342,-9.126821 1.96324,8.317547 c 1.633537,-0.599464 3.132194,-1.318818 4.465999,-2.158068 l -3.102221,-6.519154 4.915595,5.215323 c 1.198926,-0.95914 2.18804,-2.038172 2.937369,-3.222111 4.555918,-7.118622 9.321647,-14.192282 18.703239,-20.111977 l -6.848863,-2.427825 10.505593,0.314718 c 1.70846,-0.869221 3.50685,-1.933268 4.87063,-2.937368 l -7.44833,-0.599462 11.19497,-2.637637 c 0.86922,-0.869221 1.6785,-1.783402 2.41284,-2.697583 2.592683,-3.288053 4.346113,-6.710986 3.926483,-9.823696 -0.19482,-1.557105 -1.12399,-3.021293 -2.637633,-3.841059 -0.37467,-0.194825 -0.77931,-0.367171 -1.124,-0.482567 z"
       id="path1-6"
       style="fill:#ededed;fill-opacity:1;stroke-width:0.149866" /></g></svg>
